<svg xmlns="http://www.w3.org/2000/svg" viewBox="0 0 70.13 70.28">
<defs><style>.cls-1{font-size:12.28px;font-family:Poppins-SemiBold, Poppins;font-weight:600;}</style></defs>
<g id="Layer_2" data-name="Layer 2">
<g id="Layer_2-2" data-name="Layer 2">
<text class="cls-1" transform="translate(15.52 50.88) rotate(-119.34)">a</text><text class="cls-1" transform="matrix(-0.26, -0.97, 0.97, -0.26, 11.81, 43.97)">r</text><text class="cls-1" transform="translate(10.59 39.51) rotate(-94.53)">t</text><text class="cls-1" transform="translate(10 35.21) rotate(-80.86)">h</text><text class="cls-1" transform="translate(11.12 27.71) rotate(-63.35)">u</text><text class="cls-1" transform="matrix(0.7, -0.72, 0.72, 0.7, 14.43, 20.9)">b</text><text class="cls-1" transform="translate(20.1 15.41) rotate(-33.78)"> </text><text class="cls-1" transform="translate(22.36 13.89) rotate(-27.47)"> </text><text class="cls-1" transform="translate(24.76 12.63) rotate(-21.17)"> </text><text class="cls-1" transform="matrix(0.97, -0.25, 0.25, 0.97, 27.25, 11.64)">.</text><text class="cls-1" transform="translate(30.12 10.89) rotate(-8.01)"> </text><text class="cls-1" transform="translate(32.6 10.22) rotate(3.9)">a</text><text class="cls-1" transform="translate(40.44 10.9) rotate(18.25)">r</text><text class="cls-1" transform="translate(44.8 12.32) rotate(28.69)">t</text><text class="cls-1" transform="translate(48.74 14.18) rotate(42.48)">h</text><text class="cls-1" transform="translate(54.39 19.25) rotate(59.84)">u</text><text class="cls-1" transform="translate(58.28 25.73) rotate(77.54)">b</text><text class="cls-1" transform="matrix(0.02, 1, -1, 0.02, 59.73, 33.48)"> </text><text class="cls-1" transform="translate(59.78 36.21) rotate(95.75)"> </text><text class="cls-1" transform="translate(59.53 38.9) rotate(102.33)">.</text><text class="cls-1" transform="translate(58.9 41.79) rotate(108.92)"> </text><text class="cls-1" transform="translate(58.38 44.31) rotate(121.03)">a</text><text class="cls-1" transform="translate(54.2 50.97) rotate(135.26)">r</text><text class="cls-1" transform="matrix(-0.83, 0.56, -0.56, -0.83, 50.95, 54.22)">t</text><text class="cls-1" transform="translate(47.52 56.88) rotate(159.45)">h</text><text class="cls-1" transform="translate(40.45 59.62) rotate(176.92)">u</text><text class="cls-1" transform="matrix(-0.97, -0.25, 0.25, -0.97, 32.9, 60.13)">b</text><text class="cls-1" transform="translate(25.3 57.92) rotate(-153.4)"> </text><text class="cls-1" transform="matrix(-0.84, -0.54, 0.54, -0.84, 22.89, 56.73)"> </text><text class="cls-1" transform="matrix(-0.77, -0.63, 0.63, -0.77, 20.6, 55.28)">.</text></g></g></svg>